<svg xmlns="http://www.w3.org/2000/svg" xmlns:xlink="http://www.w3.org/1999/xlink" width="500" zoomAndPan="magnify" viewBox="0 0 375 374.999991" height="500" preserveAspectRatio="xMidYMid meet" version="1.2"><defs><clipPath id="f48c95a4a6"><path d="M 5.714844 134.289062 L 89.5 134.289062 L 89.5 218.070312 L 5.714844 218.070312 Z M 5.714844 134.289062 "/></clipPath><clipPath id="f93bbdfec9"><path d="M 47.605469 134.289062 C 24.472656 134.289062 5.714844 153.042969 5.714844 176.179688 C 5.714844 199.316406 24.472656 218.070312 47.605469 218.070312 C 70.742188 218.070312 89.5 199.316406 89.5 176.179688 C 89.5 153.042969 70.742188 134.289062 47.605469 134.289062 Z M 47.605469 134.289062 "/></clipPath><clipPath id="88d23626b5"><path d="M 28.960938 149.007812 L 66.460938 149.007812 L 66.460938 203 L 28.960938 203 Z M 28.960938 149.007812 "/></clipPath><clipPath id="2d587645d0"><path d="M 32.210938 152.382812 L 62.960938 152.382812 L 62.960938 183.132812 L 32.210938 183.132812 Z M 32.210938 152.382812 "/></clipPath><clipPath id="e0b104b3eb"><path d="M 38.382812 155.25 L 49.277344 155.25 L 49.277344 179.996094 L 38.382812 179.996094 Z M 38.382812 155.25 "/></clipPath><clipPath id="cb98597530"><path d="M 46 155.246094 L 57 155.246094 L 57 179.996094 L 46 179.996094 Z M 46 155.246094 "/></clipPath></defs><g id="fe63bc3a17"><g style="fill:#200b38;fill-opacity:1;"><g transform="translate(106.422293, 196.610407)"><path style="stroke:none" d="M 27.417969 -5.386719 C 28.070312 -1.796875 29.703125 0 34.109375 0 C 37.535156 0 39.410156 -1.875 40.066406 -4.324219 C 42.429688 -12.8125 43.410156 -17.054688 45.125 -22.359375 C 46.019531 -25.457031 50.019531 -26.683594 50.019531 -27.90625 C 50.019531 -29.292969 48.46875 -29.785156 43.164062 -29.785156 C 37.941406 -29.785156 36.3125 -28.96875 36.3125 -27.660156 C 36.3125 -27.089844 36.882812 -26.4375 38.515625 -25.621094 C 39.984375 -24.96875 39.984375 -23.988281 39.25 -20.5625 L 36.230469 -7.75 C 35.085938 -12.15625 32.722656 -21.867188 31.90625 -25.539062 C 31.253906 -28.558594 30.273438 -29.292969 27.335938 -29.292969 C 24.480469 -29.292969 23.175781 -28.558594 22.601562 -25.296875 C 22.03125 -22.683594 20.074219 -12.238281 19.09375 -7.507812 L 15.015625 -21.378906 C 14.199219 -23.988281 16.074219 -25.703125 16.074219 -27.335938 C 16.074219 -29.050781 13.136719 -29.863281 8.648438 -29.863281 L 7.832031 -29.863281 C 3.507812 -29.863281 -0.164062 -28.96875 -0.164062 -27.171875 C -0.164062 -24.886719 2.121094 -25.296875 4.160156 -18.523438 L 8.484375 -4.324219 C 9.300781 -1.386719 11.34375 0 16.238281 0 C 20.316406 0 22.113281 -1.957031 22.765625 -4.160156 C 24.152344 -8.894531 24.886719 -11.996094 25.457031 -14.441406 Z M 27.417969 -5.386719 "/></g></g><g style="fill:#200b38;fill-opacity:1;"><g transform="translate(156.277584, 196.610407)"><path style="stroke:none" d="M 17.136719 -29.375 C 8.324219 -29.375 1.0625 -23.828125 1.0625 -14.441406 C 1.0625 -5.140625 8.324219 0.40625 17.136719 0.40625 C 26.03125 0.40625 33.210938 -5.140625 33.210938 -14.441406 C 33.210938 -23.828125 26.03125 -29.375 17.136719 -29.375 Z M 19.421875 -2.691406 C 15.75 -1.796875 12.8125 -15.09375 12.8125 -20.074219 C 12.8125 -23.582031 13.382812 -25.949219 14.6875 -26.191406 C 16.726562 -26.765625 19.421875 -21.949219 20.808594 -15.503906 C 22.113281 -8.976562 21.542969 -3.265625 19.421875 -2.691406 Z M 19.421875 -2.691406 "/></g></g><g style="fill:#200b38;fill-opacity:1;"><g transform="translate(190.548001, 196.610407)"><path style="stroke:none" d="M 31.90625 -23.253906 C 31.90625 -27.171875 29.457031 -30.191406 25.378906 -30.191406 C 21.378906 -30.191406 17.625 -25.785156 15.09375 -21.214844 C 15.175781 -25.050781 15.421875 -26.519531 15.421875 -27.742188 C 15.421875 -29.210938 14.851562 -29.945312 13.546875 -29.945312 C 11.996094 -29.945312 10.117188 -29.210938 5.792969 -26.847656 C 1.632812 -24.5625 0.734375 -23.664062 0.734375 -22.441406 C 0.734375 -21.378906 1.304688 -20.890625 2.449219 -19.910156 C 3.753906 -18.6875 3.753906 -17.21875 3.753906 -12.078125 L 3.753906 -7.996094 C 3.753906 -5.222656 2.121094 -4.160156 2.121094 -2.53125 C 2.121094 -0.816406 4.734375 0 9.058594 0 L 9.792969 0 C 14.117188 0 16.644531 -0.816406 16.644531 -2.53125 C 16.644531 -4.160156 15.015625 -5.222656 15.015625 -7.996094 L 15.015625 -13.953125 C 16.238281 -17.953125 18.605469 -21.132812 20.398438 -21.132812 C 22.683594 -21.132812 23.828125 -16.320312 26.683594 -16.320312 C 29.375 -16.320312 31.90625 -19.339844 31.90625 -23.253906 Z M 31.90625 -23.253906 "/></g></g><g style="fill:#200b38;fill-opacity:1;"><g transform="translate(222.452124, 196.610407)"><path style="stroke:none" d="M 3.917969 -26.03125 L 3.917969 -7.996094 C 3.917969 -5.222656 2.203125 -4.160156 2.203125 -2.53125 C 2.203125 -0.816406 4.8125 0 9.140625 0 L 9.875 0 C 14.28125 0 16.808594 -0.816406 16.808594 -2.53125 C 16.808594 -4.160156 15.09375 -5.222656 15.09375 -7.996094 L 15.09375 -8.40625 C 15.503906 -8.8125 15.910156 -9.300781 16.402344 -9.710938 C 16.484375 -9.464844 16.644531 -9.21875 16.890625 -9.058594 L 19.992188 -4.242188 C 21.785156 -1.714844 24.152344 0 29.128906 0 C 33.945312 0 37.78125 -1.386719 37.863281 -2.9375 C 37.941406 -3.589844 37.535156 -4 36.230469 -4.242188 C 34.597656 -4.570312 33.375 -5.140625 32.230469 -6.691406 C 31.578125 -7.507812 27.582031 -13.21875 24.722656 -17.460938 L 30.84375 -23.011719 C 33.292969 -25.214844 35.984375 -26.03125 35.984375 -27.253906 C 35.984375 -28.722656 33.863281 -29.210938 28.558594 -29.210938 C 23.417969 -29.210938 21.050781 -28.804688 21.050781 -27.417969 C 21.050781 -26.765625 21.785156 -26.03125 22.195312 -25.214844 C 22.683594 -23.988281 22.683594 -22.195312 21.296875 -20.5625 C 20.074219 -19.175781 17.378906 -16.890625 15.09375 -14.6875 L 15.09375 -27.988281 C 15.09375 -37.617188 15.75 -39.820312 15.75 -41.613281 C 15.75 -42.921875 15.015625 -43.738281 13.625 -43.738281 C 12.078125 -43.738281 10.28125 -43.082031 6.039062 -40.800781 C 1.796875 -38.515625 0.328125 -37.617188 0.328125 -36.394531 C 0.328125 -35.332031 0.980469 -34.84375 2.039062 -34.027344 C 3.671875 -32.640625 3.917969 -31.332031 3.917969 -26.03125 Z M 3.917969 -26.03125 "/></g></g><g style="fill:#200b38;fill-opacity:1;"><g transform="translate(261.128731, 196.610407)"><path style="stroke:none" d="M 3.425781 -25.457031 L 3.425781 -7.996094 C 3.425781 -5.222656 1.796875 -4.160156 1.796875 -2.53125 C 1.796875 -0.816406 4.324219 0 8.648438 0 L 9.464844 0 C 13.789062 0 14.6875 -2.039062 14.6875 -4.8125 L 14.6875 -5.058594 C 16.402344 -1.46875 18.769531 0 22.683594 0 C 28.96875 0 33.699219 -6.039062 33.699219 -14.117188 C 33.699219 -21.707031 29.703125 -29.292969 21.949219 -29.292969 C 18.929688 -29.292969 16.402344 -28.234375 14.6875 -26.273438 L 14.6875 -28.804688 C 14.6875 -36.71875 15.175781 -39.332031 15.175781 -41.207031 C 15.175781 -42.675781 14.523438 -43.410156 13.136719 -43.410156 C 11.585938 -43.410156 9.792969 -42.675781 5.46875 -40.308594 C 1.222656 -37.941406 0.328125 -37.046875 0.328125 -35.902344 C 0.328125 -34.84375 0.980469 -34.269531 2.039062 -33.375 C 3.425781 -32.148438 3.425781 -30.597656 3.425781 -25.457031 Z M 19.339844 -5.546875 C 17.378906 -5.304688 15.339844 -9.058594 14.523438 -14.199219 C 14.359375 -15.503906 14.28125 -16.644531 14.28125 -18.113281 C 14.28125 -21.542969 15.015625 -23.910156 16.484375 -24.070312 C 18.441406 -24.398438 20.644531 -20.480469 21.378906 -15.339844 C 22.195312 -10.28125 21.214844 -5.875 19.339844 -5.546875 Z M 19.339844 -5.546875 "/></g></g><g style="fill:#200b38;fill-opacity:1;"><g transform="translate(296.296699, 196.610407)"><path style="stroke:none" d="M 31.90625 -23.253906 C 31.90625 -27.171875 29.457031 -30.191406 25.378906 -30.191406 C 21.378906 -30.191406 17.625 -25.785156 15.09375 -21.214844 C 15.175781 -25.050781 15.421875 -26.519531 15.421875 -27.742188 C 15.421875 -29.210938 14.851562 -29.945312 13.546875 -29.945312 C 11.996094 -29.945312 10.117188 -29.210938 5.792969 -26.847656 C 1.632812 -24.5625 0.734375 -23.664062 0.734375 -22.441406 C 0.734375 -21.378906 1.304688 -20.890625 2.449219 -19.910156 C 3.753906 -18.6875 3.753906 -17.21875 3.753906 -12.078125 L 3.753906 -7.996094 C 3.753906 -5.222656 2.121094 -4.160156 2.121094 -2.53125 C 2.121094 -0.816406 4.734375 0 9.058594 0 L 9.792969 0 C 14.117188 0 16.644531 -0.816406 16.644531 -2.53125 C 16.644531 -4.160156 15.015625 -5.222656 15.015625 -7.996094 L 15.015625 -13.953125 C 16.238281 -17.953125 18.605469 -21.132812 20.398438 -21.132812 C 22.683594 -21.132812 23.828125 -16.320312 26.683594 -16.320312 C 29.375 -16.320312 31.90625 -19.339844 31.90625 -23.253906 Z M 31.90625 -23.253906 "/></g></g><g style="fill:#200b38;fill-opacity:1;"><g transform="translate(328.200841, 196.610407)"><path style="stroke:none" d="M 3.34375 -12.078125 C 3.34375 -3.183594 6.855469 0 12.972656 0 C 16.320312 0 19.09375 -1.550781 21.132812 -4 C 21.785156 -1.304688 23.910156 0 27.988281 0 C 31.253906 0 34.027344 -1.0625 35.167969 -2.121094 C 35.902344 -2.855469 35.738281 -3.917969 34.84375 -4.160156 C 33.292969 -4.570312 32.148438 -5.46875 32.148438 -7.996094 C 32.148438 -8.160156 32.066406 -9.875 32.066406 -14.035156 C 32.066406 -23.664062 32.558594 -25.949219 32.558594 -27.742188 C 32.558594 -29.210938 31.90625 -29.945312 30.519531 -29.945312 C 29.050781 -29.945312 27.5 -29.863281 22.929688 -28.234375 C 18.605469 -26.765625 18.195312 -25.949219 18.195312 -24.644531 C 18.195312 -23.828125 18.6875 -23.09375 19.828125 -22.195312 C 20.726562 -21.460938 20.808594 -18.195312 20.890625 -14.6875 C 20.644531 -9.058594 18.769531 -5.140625 17.054688 -5.140625 C 15.175781 -5.140625 14.6875 -8.894531 14.6875 -14.035156 C 14.6875 -23.664062 15.015625 -25.949219 15.015625 -27.742188 C 15.015625 -29.210938 14.441406 -29.945312 13.054688 -29.945312 C 11.585938 -29.945312 10.035156 -29.863281 5.46875 -28.234375 C 0.898438 -26.683594 0.328125 -25.867188 0.328125 -24.644531 C 0.328125 -23.582031 0.980469 -23.09375 2.039062 -22.113281 C 3.425781 -20.890625 3.34375 -17.21875 3.34375 -12.078125 Z M 3.34375 -12.078125 "/></g></g><g clip-rule="nonzero" clip-path="url(#f48c95a4a6)"><g clip-rule="nonzero" clip-path="url(#f93bbdfec9)"><path style=" stroke:none;fill-rule:nonzero;fill:#200b38;fill-opacity:1;" d="M 5.714844 134.289062 L 89.5 134.289062 L 89.5 218.070312 L 5.714844 218.070312 Z M 5.714844 134.289062 "/></g></g><g clip-rule="nonzero" clip-path="url(#88d23626b5)"><path style=" stroke:none;fill-rule:evenodd;fill:#ffffff;fill-opacity:1;" d="M 47.488281 149.027344 C 57.722656 149.027344 66.015625 157.324219 66.015625 167.554688 C 66.015625 171.117188 65.011719 174.441406 63.273438 177.265625 C 61.183594 180.722656 59.09375 184.183594 57.007812 187.640625 C 54.464844 191.777344 52.40625 195.121094 49.863281 199.253906 C 47.621094 202.898438 47.46875 202.988281 45.214844 199.324219 C 42.6875 195.210938 40.558594 191.753906 38.027344 187.640625 C 35.945312 184.222656 33.863281 180.800781 31.777344 177.382812 C 29.996094 174.535156 28.960938 171.164062 28.960938 167.554688 C 28.960938 157.324219 37.257812 149.027344 47.488281 149.027344 Z M 47.488281 158.316406 C 52.078125 158.316406 55.796875 162.035156 55.796875 166.625 C 55.796875 171.210938 52.078125 174.929688 47.488281 174.929688 C 42.902344 174.929688 39.183594 171.210938 39.183594 166.625 C 39.183594 162.035156 42.902344 158.316406 47.488281 158.316406 Z M 47.488281 158.316406 "/></g><g clip-rule="nonzero" clip-path="url(#2d587645d0)"><path style=" stroke:none;fill-rule:nonzero;fill:#ffffff;fill-opacity:1;" d="M 62.960938 167.757812 C 62.960938 168.765625 62.863281 169.765625 62.664062 170.757812 C 62.46875 171.746094 62.175781 172.707031 61.789062 173.640625 C 61.402344 174.574219 60.929688 175.460938 60.371094 176.296875 C 59.808594 177.136719 59.171875 177.914062 58.457031 178.628906 C 57.742188 179.34375 56.96875 179.980469 56.128906 180.539062 C 55.289062 181.101562 54.402344 181.574219 53.46875 181.960938 C 52.535156 182.347656 51.574219 182.640625 50.585938 182.835938 C 49.59375 183.03125 48.59375 183.132812 47.585938 183.132812 C 46.578125 183.132812 45.578125 183.03125 44.585938 182.835938 C 43.597656 182.640625 42.636719 182.347656 41.703125 181.960938 C 40.769531 181.574219 39.882812 181.101562 39.042969 180.539062 C 38.203125 179.980469 37.429688 179.34375 36.714844 178.628906 C 36 177.914062 35.363281 177.136719 34.800781 176.296875 C 34.242188 175.460938 33.769531 174.574219 33.382812 173.640625 C 32.996094 172.707031 32.703125 171.746094 32.507812 170.757812 C 32.308594 169.765625 32.210938 168.765625 32.210938 167.757812 C 32.210938 166.746094 32.308594 165.746094 32.507812 164.757812 C 32.703125 163.765625 32.996094 162.804688 33.382812 161.871094 C 33.769531 160.941406 34.242188 160.054688 34.800781 159.214844 C 35.363281 158.375 36 157.597656 36.714844 156.886719 C 37.429688 156.171875 38.203125 155.535156 39.042969 154.972656 C 39.882812 154.414062 40.769531 153.9375 41.703125 153.550781 C 42.636719 153.164062 43.597656 152.875 44.585938 152.675781 C 45.578125 152.480469 46.578125 152.382812 47.585938 152.382812 C 48.59375 152.382812 49.59375 152.480469 50.585938 152.675781 C 51.574219 152.875 52.535156 153.164062 53.46875 153.550781 C 54.402344 153.9375 55.289062 154.414062 56.128906 154.972656 C 56.96875 155.535156 57.742188 156.171875 58.457031 156.886719 C 59.171875 157.597656 59.808594 158.375 60.371094 159.214844 C 60.929688 160.054688 61.402344 160.941406 61.789062 161.871094 C 62.175781 162.804688 62.46875 163.765625 62.664062 164.757812 C 62.863281 165.746094 62.960938 166.746094 62.960938 167.757812 Z M 62.960938 167.757812 "/></g><g clip-rule="nonzero" clip-path="url(#e0b104b3eb)"><path style=" stroke:none;fill-rule:nonzero;fill:#200b38;fill-opacity:1;" d="M 48.179688 178.355469 C 48.113281 178.792969 47.960938 179.210938 47.738281 179.59375 C 47.738281 179.597656 47.738281 179.597656 47.734375 179.601562 C 47.574219 179.875 47.28125 180.035156 46.9375 179.988281 C 42.429688 179.414062 38.382812 173.898438 38.382812 167.441406 C 38.382812 160.597656 42.171875 155.582031 47.753906 155.253906 C 48.191406 155.230469 48.625 155.300781 49.050781 155.386719 C 49.257812 155.429688 49.339844 155.652344 49.207031 155.804688 C 46.320312 159.0625 44.671875 161.949219 44.972656 165.957031 C 45.078125 167.394531 45.589844 169.175781 46.226562 170.875 C 46.820312 172.476562 48.644531 175.285156 48.179688 178.355469 "/></g><g clip-rule="nonzero" clip-path="url(#cb98597530)"><path style=" stroke:none;fill-rule:nonzero;fill:#200b38;fill-opacity:1;" d="M 56.601562 167.648438 C 56.601562 173.519531 53.6875 178.441406 49.769531 179.71875 C 49.265625 179.882812 48.777344 179.429688 48.894531 178.910156 C 49.097656 178.015625 49.230469 177.097656 49.195312 176.171875 C 49.027344 171.34375 46.804688 169.8125 46.550781 166.640625 C 46.3125 163.6875 46.652344 160.925781 49 157.230469 C 49.253906 156.832031 49.554688 156.457031 49.890625 156.125 C 50.046875 155.886719 50.378906 155.804688 50.648438 155.933594 C 54.113281 157.613281 56.601562 162.226562 56.601562 167.648438 "/></g></g></svg>