<svg xmlns="http://www.w3.org/2000/svg" xmlns:xlink="http://www.w3.org/1999/xlink" width="500" zoomAndPan="magnify" viewBox="0 0 375 374.999991" height="500" preserveAspectRatio="xMidYMid meet" version="1.2"><defs><clipPath id="0923636432"><path d="M 0 128.179688 L 77.039062 128.179688 L 77.039062 205.21875 L 0 205.21875 Z M 0 128.179688 "/></clipPath><clipPath id="7d0e5821dd"><path d="M 38.519531 128.179688 C 17.246094 128.179688 0 145.425781 0 166.699219 C 0 187.972656 17.246094 205.21875 38.519531 205.21875 C 59.792969 205.21875 77.039062 187.972656 77.039062 166.699219 C 77.039062 145.425781 59.792969 128.179688 38.519531 128.179688 Z M 38.519531 128.179688 "/></clipPath><clipPath id="7984fa85c5"><path d="M 21.375 141.714844 L 55.53125 141.714844 L 55.53125 191 L 21.375 191 Z M 21.375 141.714844 "/></clipPath><clipPath id="70584e248a"><path d="M 24.363281 144.816406 L 52.828125 144.816406 L 52.828125 173.28125 L 24.363281 173.28125 Z M 24.363281 144.816406 "/></clipPath><clipPath id="53ab7de77f"><path d="M 30.039062 147.453125 L 40.066406 147.453125 L 40.066406 170.222656 L 30.039062 170.222656 Z M 30.039062 147.453125 "/></clipPath></defs><g id="8692daf246"><g style="fill:#ffffff;fill-opacity:1;"><g transform="translate(99.792843, 188.090182)"><path style="stroke:none" d="M 28.703125 -5.636719 C 29.386719 -1.878906 31.097656 0 35.710938 0 C 39.296875 0 41.261719 -1.964844 41.945312 -4.527344 C 44.421875 -13.414062 45.449219 -17.855469 47.242188 -23.40625 C 48.183594 -26.652344 52.367188 -27.9375 52.367188 -29.21875 C 52.367188 -30.667969 50.746094 -31.183594 45.191406 -31.183594 C 39.726562 -31.183594 38.015625 -30.328125 38.015625 -28.960938 C 38.015625 -28.363281 38.613281 -27.679688 40.324219 -26.824219 C 41.859375 -26.140625 41.859375 -25.117188 41.09375 -21.527344 L 37.929688 -8.117188 C 36.734375 -12.730469 34.257812 -22.894531 33.402344 -26.738281 C 32.71875 -29.902344 31.695312 -30.667969 28.617188 -30.667969 C 25.628906 -30.667969 24.261719 -29.902344 23.664062 -26.484375 C 23.066406 -23.75 21.015625 -12.816406 19.992188 -7.859375 L 15.71875 -22.382812 C 14.863281 -25.117188 16.828125 -26.910156 16.828125 -28.617188 C 16.828125 -30.414062 13.753906 -31.265625 9.054688 -31.265625 L 8.203125 -31.265625 C 3.671875 -31.265625 -0.171875 -30.328125 -0.171875 -28.449219 C -0.171875 -26.054688 2.222656 -26.484375 4.355469 -19.394531 L 8.882812 -4.527344 C 9.738281 -1.453125 11.875 0 17 0 C 21.273438 0 23.152344 -2.050781 23.835938 -4.355469 C 25.289062 -9.3125 26.054688 -12.558594 26.652344 -15.121094 Z M 28.703125 -5.636719 "/></g></g><g style="fill:#ffffff;fill-opacity:1;"><g transform="translate(151.989424, 188.090182)"><path style="stroke:none" d="M 17.941406 -30.753906 C 8.714844 -30.753906 1.109375 -24.945312 1.109375 -15.121094 C 1.109375 -5.382812 8.714844 0.425781 17.941406 0.425781 C 27.253906 0.425781 34.769531 -5.382812 34.769531 -15.121094 C 34.769531 -24.945312 27.253906 -30.753906 17.941406 -30.753906 Z M 20.332031 -2.820312 C 16.488281 -1.878906 13.414062 -15.804688 13.414062 -21.015625 C 13.414062 -24.6875 14.011719 -27.167969 15.378906 -27.421875 C 17.511719 -28.019531 20.332031 -22.980469 21.785156 -16.230469 C 23.152344 -9.398438 22.554688 -3.417969 20.332031 -2.820312 Z M 20.332031 -2.820312 "/></g></g><g style="fill:#ffffff;fill-opacity:1;"><g transform="translate(187.869239, 188.090182)"><path style="stroke:none" d="M 33.402344 -24.347656 C 33.402344 -28.449219 30.839844 -31.609375 26.570312 -31.609375 C 22.382812 -31.609375 18.453125 -26.996094 15.804688 -22.210938 C 15.890625 -26.226562 16.144531 -27.765625 16.144531 -29.046875 C 16.144531 -30.585938 15.546875 -31.351562 14.179688 -31.351562 C 12.558594 -31.351562 10.59375 -30.585938 6.066406 -28.105469 C 1.707031 -25.714844 0.769531 -24.773438 0.769531 -23.492188 C 0.769531 -22.382812 1.367188 -21.871094 2.5625 -20.84375 C 3.929688 -19.5625 3.929688 -18.027344 3.929688 -12.644531 L 3.929688 -8.371094 C 3.929688 -5.46875 2.222656 -4.355469 2.222656 -2.648438 C 2.222656 -0.855469 4.953125 0 9.484375 0 L 10.25 0 C 14.78125 0 17.429688 -0.855469 17.429688 -2.648438 C 17.429688 -4.355469 15.71875 -5.46875 15.71875 -8.371094 L 15.71875 -14.609375 C 17 -18.792969 19.476562 -22.125 21.359375 -22.125 C 23.75 -22.125 24.945312 -17.085938 27.9375 -17.085938 C 30.753906 -17.085938 33.402344 -20.246094 33.402344 -24.347656 Z M 33.402344 -24.347656 "/></g></g><g style="fill:#ffffff;fill-opacity:1;"><g transform="translate(221.271635, 188.090182)"><path style="stroke:none" d="M 4.101562 -27.253906 L 4.101562 -8.371094 C 4.101562 -5.46875 2.304688 -4.355469 2.304688 -2.648438 C 2.304688 -0.855469 5.039062 0 9.566406 0 L 10.335938 0 C 14.949219 0 17.597656 -0.855469 17.597656 -2.648438 C 17.597656 -4.355469 15.804688 -5.46875 15.804688 -8.371094 L 15.804688 -8.800781 C 16.230469 -9.226562 16.660156 -9.738281 17.171875 -10.167969 C 17.257812 -9.910156 17.429688 -9.652344 17.683594 -9.484375 L 20.929688 -4.441406 C 22.808594 -1.792969 25.289062 0 30.5 0 C 35.539062 0 39.554688 -1.453125 39.640625 -3.074219 C 39.726562 -3.757812 39.296875 -4.1875 37.929688 -4.441406 C 36.222656 -4.785156 34.941406 -5.382812 33.746094 -7.003906 C 33.0625 -7.859375 28.875 -13.839844 25.886719 -18.28125 L 32.292969 -24.089844 C 34.855469 -26.398438 37.675781 -27.253906 37.675781 -28.535156 C 37.675781 -30.070312 35.453125 -30.585938 29.902344 -30.585938 C 24.519531 -30.585938 22.039062 -30.15625 22.039062 -28.703125 C 22.039062 -28.019531 22.808594 -27.253906 23.238281 -26.398438 C 23.75 -25.117188 23.75 -23.238281 22.296875 -21.527344 C 21.015625 -20.074219 18.195312 -17.683594 15.804688 -15.378906 L 15.804688 -29.300781 C 15.804688 -39.382812 16.488281 -41.691406 16.488281 -43.570312 C 16.488281 -44.9375 15.71875 -45.789062 14.265625 -45.789062 C 12.644531 -45.789062 10.765625 -45.105469 6.320312 -42.714844 C 1.878906 -40.324219 0.339844 -39.382812 0.339844 -38.101562 C 0.339844 -36.992188 1.023438 -36.480469 2.136719 -35.625 C 3.84375 -34.171875 4.101562 -32.804688 4.101562 -27.253906 Z M 4.101562 -27.253906 "/></g></g><g style="fill:#ffffff;fill-opacity:1;"><g transform="translate(261.764563, 188.090182)"><path style="stroke:none" d="M 3.589844 -26.652344 L 3.589844 -8.371094 C 3.589844 -5.46875 1.878906 -4.355469 1.878906 -2.648438 C 1.878906 -0.855469 4.527344 0 9.054688 0 L 9.910156 0 C 14.4375 0 15.378906 -2.136719 15.378906 -5.039062 L 15.378906 -5.296875 C 17.171875 -1.539062 19.648438 0 23.75 0 C 30.328125 0 35.28125 -6.320312 35.28125 -14.78125 C 35.28125 -22.722656 31.097656 -30.667969 22.980469 -30.667969 C 19.820312 -30.667969 17.171875 -29.558594 15.378906 -27.507812 L 15.378906 -30.15625 C 15.378906 -38.445312 15.890625 -41.175781 15.890625 -43.140625 C 15.890625 -44.679688 15.207031 -45.449219 13.753906 -45.449219 C 12.132812 -45.449219 10.25 -44.679688 5.722656 -42.203125 C 1.28125 -39.726562 0.339844 -38.785156 0.339844 -37.589844 C 0.339844 -36.480469 1.023438 -35.878906 2.136719 -34.941406 C 3.589844 -33.660156 3.589844 -32.035156 3.589844 -26.652344 Z M 20.246094 -5.808594 C 18.195312 -5.554688 16.0625 -9.484375 15.207031 -14.863281 C 15.035156 -16.230469 14.949219 -17.429688 14.949219 -18.964844 C 14.949219 -22.554688 15.71875 -25.03125 17.257812 -25.203125 C 19.308594 -25.542969 21.613281 -21.441406 22.382812 -16.0625 C 23.238281 -10.765625 22.210938 -6.152344 20.246094 -5.808594 Z M 20.246094 -5.808594 "/></g></g><g style="fill:#ffffff;fill-opacity:1;"><g transform="translate(298.584079, 188.090182)"><path style="stroke:none" d="M 33.402344 -24.347656 C 33.402344 -28.449219 30.839844 -31.609375 26.570312 -31.609375 C 22.382812 -31.609375 18.453125 -26.996094 15.804688 -22.210938 C 15.890625 -26.226562 16.144531 -27.765625 16.144531 -29.046875 C 16.144531 -30.585938 15.546875 -31.351562 14.179688 -31.351562 C 12.558594 -31.351562 10.59375 -30.585938 6.066406 -28.105469 C 1.707031 -25.714844 0.769531 -24.773438 0.769531 -23.492188 C 0.769531 -22.382812 1.367188 -21.871094 2.5625 -20.84375 C 3.929688 -19.5625 3.929688 -18.027344 3.929688 -12.644531 L 3.929688 -8.371094 C 3.929688 -5.46875 2.222656 -4.355469 2.222656 -2.648438 C 2.222656 -0.855469 4.953125 0 9.484375 0 L 10.25 0 C 14.78125 0 17.429688 -0.855469 17.429688 -2.648438 C 17.429688 -4.355469 15.71875 -5.46875 15.71875 -8.371094 L 15.71875 -14.609375 C 17 -18.792969 19.476562 -22.125 21.359375 -22.125 C 23.75 -22.125 24.945312 -17.085938 27.9375 -17.085938 C 30.753906 -17.085938 33.402344 -20.246094 33.402344 -24.347656 Z M 33.402344 -24.347656 "/></g></g><g style="fill:#ffffff;fill-opacity:1;"><g transform="translate(331.986495, 188.090182)"><path style="stroke:none" d="M 3.503906 -12.644531 C 3.503906 -3.332031 7.175781 0 13.582031 0 C 17.085938 0 19.992188 -1.625 22.125 -4.1875 C 22.808594 -1.367188 25.03125 0 29.300781 0 C 32.71875 0 35.625 -1.109375 36.820312 -2.222656 C 37.589844 -2.988281 37.417969 -4.101562 36.480469 -4.355469 C 34.855469 -4.785156 33.660156 -5.722656 33.660156 -8.371094 C 33.660156 -8.542969 33.574219 -10.335938 33.574219 -14.695312 C 33.574219 -24.773438 34.085938 -27.167969 34.085938 -29.046875 C 34.085938 -30.585938 33.402344 -31.351562 31.949219 -31.351562 C 30.414062 -31.351562 28.789062 -31.265625 24.007812 -29.558594 C 19.476562 -28.019531 19.050781 -27.167969 19.050781 -25.800781 C 19.050781 -24.945312 19.5625 -24.175781 20.757812 -23.238281 C 21.699219 -22.46875 21.785156 -19.050781 21.871094 -15.378906 C 21.613281 -9.484375 19.648438 -5.382812 17.855469 -5.382812 C 15.890625 -5.382812 15.378906 -9.3125 15.378906 -14.695312 C 15.378906 -24.773438 15.71875 -27.167969 15.71875 -29.046875 C 15.71875 -30.585938 15.121094 -31.351562 13.667969 -31.351562 C 12.132812 -31.351562 10.507812 -31.265625 5.722656 -29.558594 C 0.941406 -27.9375 0.339844 -27.082031 0.339844 -25.800781 C 0.339844 -24.6875 1.023438 -24.175781 2.136719 -23.152344 C 3.589844 -21.871094 3.503906 -18.027344 3.503906 -12.644531 Z M 3.503906 -12.644531 "/></g></g><g clip-rule="nonzero" clip-path="url(#0923636432)"><g clip-rule="nonzero" clip-path="url(#7d0e5821dd)"><path style=" stroke:none;fill-rule:nonzero;fill:#ffffff;fill-opacity:1;" d="M 0 128.179688 L 77.039062 128.179688 L 77.039062 205.21875 L 0 205.21875 Z M 0 128.179688 "/></g></g><g clip-rule="nonzero" clip-path="url(#7984fa85c5)"><path style=" stroke:none;fill-rule:evenodd;fill:#150329;fill-opacity:1;" d="M 38.453125 141.730469 C 47.886719 141.730469 55.53125 149.375 55.53125 158.808594 C 55.53125 162.089844 54.605469 165.15625 53 167.757812 C 51.078125 170.945312 49.152344 174.136719 47.226562 177.324219 C 44.882812 181.132812 42.984375 184.21875 40.640625 188.027344 C 38.574219 191.386719 38.4375 191.46875 36.359375 188.09375 C 34.027344 184.300781 32.066406 181.113281 29.734375 177.324219 C 27.8125 174.171875 25.894531 171.019531 23.972656 167.867188 C 22.328125 165.238281 21.375 162.136719 21.375 158.808594 C 21.375 149.375 29.019531 141.730469 38.453125 141.730469 Z M 38.453125 150.292969 C 42.683594 150.292969 46.109375 153.71875 46.109375 157.949219 C 46.109375 162.175781 42.683594 165.605469 38.453125 165.605469 C 34.226562 165.605469 30.796875 162.175781 30.796875 157.949219 C 30.796875 153.71875 34.226562 150.292969 38.453125 150.292969 Z M 38.453125 150.292969 "/></g><g clip-rule="nonzero" clip-path="url(#70584e248a)"><path style=" stroke:none;fill-rule:nonzero;fill:#150329;fill-opacity:1;" d="M 52.675781 158.972656 C 52.675781 159.902344 52.585938 160.824219 52.402344 161.734375 C 52.222656 162.648438 51.953125 163.53125 51.597656 164.390625 C 51.242188 165.25 50.808594 166.066406 50.289062 166.839844 C 49.773438 167.609375 49.1875 168.328125 48.53125 168.984375 C 47.871094 169.640625 47.15625 170.226562 46.382812 170.742188 C 45.613281 171.261719 44.796875 171.695312 43.9375 172.050781 C 43.078125 172.40625 42.191406 172.675781 41.28125 172.859375 C 40.371094 173.039062 39.449219 173.128906 38.519531 173.128906 C 37.589844 173.128906 36.667969 173.039062 35.757812 172.859375 C 34.847656 172.675781 33.960938 172.40625 33.101562 172.050781 C 32.242188 171.695312 31.429688 171.261719 30.65625 170.742188 C 29.882812 170.226562 29.167969 169.640625 28.511719 168.984375 C 27.851562 168.328125 27.265625 167.609375 26.75 166.839844 C 26.234375 166.066406 25.796875 165.25 25.441406 164.390625 C 25.085938 163.53125 24.816406 162.648438 24.636719 161.734375 C 24.453125 160.824219 24.363281 159.902344 24.363281 158.972656 C 24.363281 158.042969 24.453125 157.125 24.636719 156.210938 C 24.816406 155.300781 25.085938 154.414062 25.441406 153.554688 C 25.796875 152.699219 26.234375 151.882812 26.75 151.109375 C 27.265625 150.335938 27.851562 149.621094 28.511719 148.964844 C 29.167969 148.304688 29.882812 147.71875 30.65625 147.203125 C 31.429688 146.6875 32.242188 146.25 33.101562 145.894531 C 33.960938 145.539062 34.847656 145.269531 35.757812 145.089844 C 36.667969 144.90625 37.589844 144.816406 38.519531 144.816406 C 39.449219 144.816406 40.371094 144.90625 41.28125 145.089844 C 42.191406 145.269531 43.078125 145.539062 43.9375 145.894531 C 44.796875 146.25 45.613281 146.6875 46.382812 147.203125 C 47.15625 147.71875 47.871094 148.304688 48.53125 148.964844 C 49.1875 149.621094 49.773438 150.335938 50.289062 151.109375 C 50.808594 151.882812 51.242188 152.699219 51.597656 153.554688 C 51.953125 154.414062 52.222656 155.300781 52.402344 156.210938 C 52.585938 157.125 52.675781 158.042969 52.675781 158.972656 Z M 52.675781 158.972656 "/></g><g clip-rule="nonzero" clip-path="url(#53ab7de77f)"><path style=" stroke:none;fill-rule:nonzero;fill:#ffffff;fill-opacity:1;" d="M 39.050781 168.714844 C 38.992188 169.117188 38.851562 169.503906 38.648438 169.851562 C 38.648438 169.855469 38.644531 169.855469 38.644531 169.859375 C 38.496094 170.113281 38.226562 170.257812 37.910156 170.21875 C 33.765625 169.6875 30.039062 164.613281 30.039062 158.667969 C 30.039062 152.371094 33.523438 147.757812 38.660156 147.457031 C 39.066406 147.433594 39.464844 147.5 39.851562 147.578125 C 40.042969 147.617188 40.121094 147.824219 40 147.964844 C 37.34375 150.960938 35.824219 153.617188 36.101562 157.304688 C 36.199219 158.628906 36.671875 160.269531 37.257812 161.832031 C 37.800781 163.304688 39.480469 165.886719 39.050781 168.714844 "/></g><path style=" stroke:none;fill-rule:nonzero;fill:#ffffff;fill-opacity:1;" d="M 46.804688 158.863281 C 46.804688 164.265625 44.121094 168.792969 40.515625 169.96875 C 40.050781 170.117188 39.601562 169.703125 39.710938 169.226562 C 39.898438 168.402344 40.019531 167.558594 39.988281 166.707031 C 39.832031 162.261719 37.789062 160.855469 37.554688 157.933594 C 37.335938 155.214844 37.648438 152.675781 39.808594 149.277344 C 40.042969 148.90625 40.316406 148.566406 40.628906 148.257812 C 40.773438 148.039062 41.078125 147.964844 41.324219 148.082031 C 44.515625 149.628906 46.804688 153.871094 46.804688 158.863281 "/></g></svg>