<svg xmlns="http://www.w3.org/2000/svg" xmlns:xlink="http://www.w3.org/1999/xlink" width="500" zoomAndPan="magnify" viewBox="0 0 375 374.999991" height="500" preserveAspectRatio="xMidYMid meet" version="1.2"><defs><clipPath id="e70721bc8a"><path d="M 5.714844 134.289062 L 89.5 134.289062 L 89.5 218.070312 L 5.714844 218.070312 Z M 5.714844 134.289062 "/></clipPath><clipPath id="59ede7f8e3"><path d="M 47.605469 134.289062 C 24.472656 134.289062 5.714844 153.042969 5.714844 176.179688 C 5.714844 199.316406 24.472656 218.070312 47.605469 218.070312 C 70.742188 218.070312 89.5 199.316406 89.5 176.179688 C 89.5 153.042969 70.742188 134.289062 47.605469 134.289062 Z M 47.605469 134.289062 "/></clipPath><clipPath id="92836fb3d1"><path d="M 28.960938 149.007812 L 66.105469 149.007812 L 66.105469 203 L 28.960938 203 Z M 28.960938 149.007812 "/></clipPath><clipPath id="b6892fe0c5"><path d="M 32.210938 152.382812 L 63.167969 152.382812 L 63.167969 183.335938 L 32.210938 183.335938 Z M 32.210938 152.382812 "/></clipPath><clipPath id="44b7e8fa88"><path d="M 38.382812 155.246094 L 49.488281 155.246094 L 49.488281 180.011719 L 38.382812 180.011719 Z M 38.382812 155.246094 "/></clipPath><clipPath id="adccbafba4"><path d="M 46 155.246094 L 56.957031 155.246094 L 56.957031 180 L 46 180 Z M 46 155.246094 "/></clipPath></defs><g id="70dc4dc15b"><g style="fill:#000000;fill-opacity:1;"><g transform="translate(106.422293, 196.610407)"><path style="stroke:none" d="M 27.417969 -5.386719 C 28.070312 -1.796875 29.703125 0 34.109375 0 C 37.535156 0 39.410156 -1.875 40.066406 -4.324219 C 42.429688 -12.8125 43.410156 -17.054688 45.125 -22.359375 C 46.019531 -25.457031 50.019531 -26.683594 50.019531 -27.90625 C 50.019531 -29.292969 48.46875 -29.785156 43.164062 -29.785156 C 37.941406 -29.785156 36.3125 -28.96875 36.3125 -27.660156 C 36.3125 -27.089844 36.882812 -26.4375 38.515625 -25.621094 C 39.984375 -24.96875 39.984375 -23.988281 39.25 -20.5625 L 36.230469 -7.75 C 35.085938 -12.15625 32.722656 -21.867188 31.90625 -25.539062 C 31.253906 -28.558594 30.273438 -29.292969 27.335938 -29.292969 C 24.480469 -29.292969 23.175781 -28.558594 22.601562 -25.296875 C 22.03125 -22.683594 20.074219 -12.238281 19.09375 -7.507812 L 15.015625 -21.378906 C 14.199219 -23.988281 16.074219 -25.703125 16.074219 -27.335938 C 16.074219 -29.050781 13.136719 -29.863281 8.648438 -29.863281 L 7.832031 -29.863281 C 3.507812 -29.863281 -0.164062 -28.96875 -0.164062 -27.171875 C -0.164062 -24.886719 2.121094 -25.296875 4.160156 -18.523438 L 8.484375 -4.324219 C 9.300781 -1.386719 11.34375 0 16.238281 0 C 20.316406 0 22.113281 -1.957031 22.765625 -4.160156 C 24.152344 -8.894531 24.886719 -11.996094 25.457031 -14.441406 Z M 27.417969 -5.386719 "/></g></g><g style="fill:#000000;fill-opacity:1;"><g transform="translate(156.277584, 196.610407)"><path style="stroke:none" d="M 17.136719 -29.375 C 8.324219 -29.375 1.0625 -23.828125 1.0625 -14.441406 C 1.0625 -5.140625 8.324219 0.40625 17.136719 0.40625 C 26.03125 0.40625 33.210938 -5.140625 33.210938 -14.441406 C 33.210938 -23.828125 26.03125 -29.375 17.136719 -29.375 Z M 19.421875 -2.691406 C 15.75 -1.796875 12.8125 -15.09375 12.8125 -20.074219 C 12.8125 -23.582031 13.382812 -25.949219 14.6875 -26.191406 C 16.726562 -26.765625 19.421875 -21.949219 20.808594 -15.503906 C 22.113281 -8.976562 21.542969 -3.265625 19.421875 -2.691406 Z M 19.421875 -2.691406 "/></g></g><g style="fill:#000000;fill-opacity:1;"><g transform="translate(190.548001, 196.610407)"><path style="stroke:none" d="M 31.90625 -23.253906 C 31.90625 -27.171875 29.457031 -30.191406 25.378906 -30.191406 C 21.378906 -30.191406 17.625 -25.785156 15.09375 -21.214844 C 15.175781 -25.050781 15.421875 -26.519531 15.421875 -27.742188 C 15.421875 -29.210938 14.851562 -29.945312 13.546875 -29.945312 C 11.996094 -29.945312 10.117188 -29.210938 5.792969 -26.847656 C 1.632812 -24.5625 0.734375 -23.664062 0.734375 -22.441406 C 0.734375 -21.378906 1.304688 -20.890625 2.449219 -19.910156 C 3.753906 -18.6875 3.753906 -17.21875 3.753906 -12.078125 L 3.753906 -7.996094 C 3.753906 -5.222656 2.121094 -4.160156 2.121094 -2.53125 C 2.121094 -0.816406 4.734375 0 9.058594 0 L 9.792969 0 C 14.117188 0 16.644531 -0.816406 16.644531 -2.53125 C 16.644531 -4.160156 15.015625 -5.222656 15.015625 -7.996094 L 15.015625 -13.953125 C 16.238281 -17.953125 18.605469 -21.132812 20.398438 -21.132812 C 22.683594 -21.132812 23.828125 -16.320312 26.683594 -16.320312 C 29.375 -16.320312 31.90625 -19.339844 31.90625 -23.253906 Z M 31.90625 -23.253906 "/></g></g><g style="fill:#000000;fill-opacity:1;"><g transform="translate(222.452124, 196.610407)"><path style="stroke:none" d="M 3.917969 -26.03125 L 3.917969 -7.996094 C 3.917969 -5.222656 2.203125 -4.160156 2.203125 -2.53125 C 2.203125 -0.816406 4.8125 0 9.140625 0 L 9.875 0 C 14.28125 0 16.808594 -0.816406 16.808594 -2.53125 C 16.808594 -4.160156 15.09375 -5.222656 15.09375 -7.996094 L 15.09375 -8.40625 C 15.503906 -8.8125 15.910156 -9.300781 16.402344 -9.710938 C 16.484375 -9.464844 16.644531 -9.21875 16.890625 -9.058594 L 19.992188 -4.242188 C 21.785156 -1.714844 24.152344 0 29.128906 0 C 33.945312 0 37.78125 -1.386719 37.863281 -2.9375 C 37.941406 -3.589844 37.535156 -4 36.230469 -4.242188 C 34.597656 -4.570312 33.375 -5.140625 32.230469 -6.691406 C 31.578125 -7.507812 27.582031 -13.21875 24.722656 -17.460938 L 30.84375 -23.011719 C 33.292969 -25.214844 35.984375 -26.03125 35.984375 -27.253906 C 35.984375 -28.722656 33.863281 -29.210938 28.558594 -29.210938 C 23.417969 -29.210938 21.050781 -28.804688 21.050781 -27.417969 C 21.050781 -26.765625 21.785156 -26.03125 22.195312 -25.214844 C 22.683594 -23.988281 22.683594 -22.195312 21.296875 -20.5625 C 20.074219 -19.175781 17.378906 -16.890625 15.09375 -14.6875 L 15.09375 -27.988281 C 15.09375 -37.617188 15.75 -39.820312 15.75 -41.613281 C 15.75 -42.921875 15.015625 -43.738281 13.625 -43.738281 C 12.078125 -43.738281 10.28125 -43.082031 6.039062 -40.800781 C 1.796875 -38.515625 0.328125 -37.617188 0.328125 -36.394531 C 0.328125 -35.332031 0.980469 -34.84375 2.039062 -34.027344 C 3.671875 -32.640625 3.917969 -31.332031 3.917969 -26.03125 Z M 3.917969 -26.03125 "/></g></g><g style="fill:#000000;fill-opacity:1;"><g transform="translate(261.128731, 196.610407)"><path style="stroke:none" d="M 3.425781 -25.457031 L 3.425781 -7.996094 C 3.425781 -5.222656 1.796875 -4.160156 1.796875 -2.53125 C 1.796875 -0.816406 4.324219 0 8.648438 0 L 9.464844 0 C 13.789062 0 14.6875 -2.039062 14.6875 -4.8125 L 14.6875 -5.058594 C 16.402344 -1.46875 18.769531 0 22.683594 0 C 28.96875 0 33.699219 -6.039062 33.699219 -14.117188 C 33.699219 -21.707031 29.703125 -29.292969 21.949219 -29.292969 C 18.929688 -29.292969 16.402344 -28.234375 14.6875 -26.273438 L 14.6875 -28.804688 C 14.6875 -36.71875 15.175781 -39.332031 15.175781 -41.207031 C 15.175781 -42.675781 14.523438 -43.410156 13.136719 -43.410156 C 11.585938 -43.410156 9.792969 -42.675781 5.46875 -40.308594 C 1.222656 -37.941406 0.328125 -37.046875 0.328125 -35.902344 C 0.328125 -34.84375 0.980469 -34.269531 2.039062 -33.375 C 3.425781 -32.148438 3.425781 -30.597656 3.425781 -25.457031 Z M 19.339844 -5.546875 C 17.378906 -5.304688 15.339844 -9.058594 14.523438 -14.199219 C 14.359375 -15.503906 14.28125 -16.644531 14.28125 -18.113281 C 14.28125 -21.542969 15.015625 -23.910156 16.484375 -24.070312 C 18.441406 -24.398438 20.644531 -20.480469 21.378906 -15.339844 C 22.195312 -10.28125 21.214844 -5.875 19.339844 -5.546875 Z M 19.339844 -5.546875 "/></g></g><g style="fill:#000000;fill-opacity:1;"><g transform="translate(296.296699, 196.610407)"><path style="stroke:none" d="M 31.90625 -23.253906 C 31.90625 -27.171875 29.457031 -30.191406 25.378906 -30.191406 C 21.378906 -30.191406 17.625 -25.785156 15.09375 -21.214844 C 15.175781 -25.050781 15.421875 -26.519531 15.421875 -27.742188 C 15.421875 -29.210938 14.851562 -29.945312 13.546875 -29.945312 C 11.996094 -29.945312 10.117188 -29.210938 5.792969 -26.847656 C 1.632812 -24.5625 0.734375 -23.664062 0.734375 -22.441406 C 0.734375 -21.378906 1.304688 -20.890625 2.449219 -19.910156 C 3.753906 -18.6875 3.753906 -17.21875 3.753906 -12.078125 L 3.753906 -7.996094 C 3.753906 -5.222656 2.121094 -4.160156 2.121094 -2.53125 C 2.121094 -0.816406 4.734375 0 9.058594 0 L 9.792969 0 C 14.117188 0 16.644531 -0.816406 16.644531 -2.53125 C 16.644531 -4.160156 15.015625 -5.222656 15.015625 -7.996094 L 15.015625 -13.953125 C 16.238281 -17.953125 18.605469 -21.132812 20.398438 -21.132812 C 22.683594 -21.132812 23.828125 -16.320312 26.683594 -16.320312 C 29.375 -16.320312 31.90625 -19.339844 31.90625 -23.253906 Z M 31.90625 -23.253906 "/></g></g><g style="fill:#000000;fill-opacity:1;"><g transform="translate(328.200841, 196.610407)"><path style="stroke:none" d="M 3.34375 -12.078125 C 3.34375 -3.183594 6.855469 0 12.972656 0 C 16.320312 0 19.09375 -1.550781 21.132812 -4 C 21.785156 -1.304688 23.910156 0 27.988281 0 C 31.253906 0 34.027344 -1.0625 35.167969 -2.121094 C 35.902344 -2.855469 35.738281 -3.917969 34.84375 -4.160156 C 33.292969 -4.570312 32.148438 -5.46875 32.148438 -7.996094 C 32.148438 -8.160156 32.066406 -9.875 32.066406 -14.035156 C 32.066406 -23.664062 32.558594 -25.949219 32.558594 -27.742188 C 32.558594 -29.210938 31.90625 -29.945312 30.519531 -29.945312 C 29.050781 -29.945312 27.5 -29.863281 22.929688 -28.234375 C 18.605469 -26.765625 18.195312 -25.949219 18.195312 -24.644531 C 18.195312 -23.828125 18.6875 -23.09375 19.828125 -22.195312 C 20.726562 -21.460938 20.808594 -18.195312 20.890625 -14.6875 C 20.644531 -9.058594 18.769531 -5.140625 17.054688 -5.140625 C 15.175781 -5.140625 14.6875 -8.894531 14.6875 -14.035156 C 14.6875 -23.664062 15.015625 -25.949219 15.015625 -27.742188 C 15.015625 -29.210938 14.441406 -29.945312 13.054688 -29.945312 C 11.585938 -29.945312 10.035156 -29.863281 5.46875 -28.234375 C 0.898438 -26.683594 0.328125 -25.867188 0.328125 -24.644531 C 0.328125 -23.582031 0.980469 -23.09375 2.039062 -22.113281 C 3.425781 -20.890625 3.34375 -17.21875 3.34375 -12.078125 Z M 3.34375 -12.078125 "/></g></g><g clip-rule="nonzero" clip-path="url(#e70721bc8a)"><g clip-rule="nonzero" clip-path="url(#59ede7f8e3)"><path style=" stroke:none;fill-rule:nonzero;fill:#000000;fill-opacity:1;" d="M 5.714844 134.289062 L 89.5 134.289062 L 89.5 218.070312 L 5.714844 218.070312 Z M 5.714844 134.289062 "/></g></g><g clip-rule="nonzero" clip-path="url(#92836fb3d1)"><path style=" stroke:none;fill-rule:evenodd;fill:#ffffff;fill-opacity:1;" d="M 47.535156 149.023438 C 57.792969 149.023438 66.109375 157.339844 66.109375 167.597656 C 66.109375 171.167969 65.101562 174.5 63.355469 177.332031 C 61.261719 180.796875 59.167969 184.265625 57.074219 187.734375 C 54.527344 191.875 52.464844 195.230469 49.914062 199.375 C 47.667969 203.027344 47.515625 203.117188 45.257812 199.445312 C 42.71875 195.320312 40.585938 191.855469 38.050781 187.734375 C 35.960938 184.304688 33.875 180.875 31.785156 177.449219 C 29.996094 174.59375 28.960938 171.214844 28.960938 167.597656 C 28.960938 157.339844 37.277344 149.023438 47.535156 149.023438 Z M 47.535156 158.335938 C 52.132812 158.335938 55.859375 162.0625 55.859375 166.664062 C 55.859375 171.261719 52.132812 174.988281 47.535156 174.988281 C 42.933594 174.988281 39.207031 171.261719 39.207031 166.664062 C 39.207031 162.0625 42.9375 158.335938 47.535156 158.335938 Z M 47.535156 158.335938 "/></g><g clip-rule="nonzero" clip-path="url(#b6892fe0c5)"><path style=" stroke:none;fill-rule:nonzero;fill:#ffffff;fill-opacity:1;" d="M 63.167969 167.859375 C 63.167969 168.875 63.066406 169.882812 62.867188 170.878906 C 62.671875 171.875 62.375 172.84375 61.988281 173.78125 C 61.597656 174.722656 61.121094 175.613281 60.558594 176.457031 C 59.992188 177.304688 59.351562 178.085938 58.632812 178.804688 C 57.914062 179.523438 57.132812 180.164062 56.289062 180.726562 C 55.441406 181.292969 54.550781 181.769531 53.613281 182.160156 C 52.671875 182.546875 51.703125 182.839844 50.707031 183.039062 C 49.710938 183.238281 48.703125 183.335938 47.6875 183.335938 C 46.671875 183.335938 45.664062 183.238281 44.667969 183.039062 C 43.671875 182.839844 42.703125 182.546875 41.765625 182.160156 C 40.828125 181.769531 39.933594 181.292969 39.089844 180.726562 C 38.246094 180.164062 37.464844 179.523438 36.746094 178.804688 C 36.027344 178.085938 35.382812 177.304688 34.820312 176.457031 C 34.253906 175.613281 33.777344 174.722656 33.390625 173.78125 C 33 172.84375 32.707031 171.875 32.507812 170.878906 C 32.308594 169.882812 32.210938 168.875 32.210938 167.859375 C 32.210938 166.84375 32.308594 165.835938 32.507812 164.839844 C 32.707031 163.84375 33 162.875 33.390625 161.9375 C 33.777344 160.996094 34.253906 160.105469 34.820312 159.261719 C 35.382812 158.414062 36.027344 157.632812 36.746094 156.914062 C 37.464844 156.195312 38.246094 155.554688 39.089844 154.992188 C 39.933594 154.425781 40.828125 153.949219 41.765625 153.558594 C 42.703125 153.171875 43.671875 152.878906 44.667969 152.679688 C 45.664062 152.480469 46.671875 152.382812 47.6875 152.382812 C 48.703125 152.382812 49.710938 152.480469 50.707031 152.679688 C 51.703125 152.878906 52.671875 153.171875 53.613281 153.558594 C 54.550781 153.949219 55.441406 154.425781 56.289062 154.992188 C 57.132812 155.554688 57.914062 156.195312 58.632812 156.914062 C 59.351562 157.632812 59.992188 158.414062 60.558594 159.261719 C 61.121094 160.105469 61.597656 160.996094 61.988281 161.9375 C 62.375 162.875 62.671875 163.84375 62.867188 164.839844 C 63.066406 165.835938 63.167969 166.84375 63.167969 167.859375 Z M 63.167969 167.859375 "/></g><g clip-rule="nonzero" clip-path="url(#44b7e8fa88)"><path style=" stroke:none;fill-rule:nonzero;fill:#000000;fill-opacity:1;" d="M 48.367188 178.371094 C 48.300781 178.808594 48.144531 179.226562 47.921875 179.609375 C 47.917969 179.609375 47.917969 179.613281 47.914062 179.617188 C 47.753906 179.890625 47.453125 180.050781 47.101562 180.003906 C 42.507812 179.429688 38.382812 173.910156 38.382812 167.445312 C 38.382812 160.597656 42.242188 155.582031 47.933594 155.253906 C 48.382812 155.226562 48.824219 155.296875 49.253906 155.386719 C 49.46875 155.425781 49.550781 155.652344 49.417969 155.804688 C 46.476562 159.0625 44.792969 161.953125 45.097656 165.964844 C 45.207031 167.402344 45.730469 169.183594 46.378906 170.886719 C 46.980469 172.488281 48.84375 175.296875 48.367188 178.371094 "/></g><g clip-rule="nonzero" clip-path="url(#adccbafba4)"><path style=" stroke:none;fill-rule:nonzero;fill:#000000;fill-opacity:1;" d="M 56.953125 167.65625 C 56.953125 173.53125 53.984375 178.453125 49.988281 179.734375 C 49.472656 179.898438 48.976562 179.445312 49.097656 178.925781 C 49.304688 178.03125 49.4375 177.113281 49.40625 176.1875 C 49.234375 171.351562 46.96875 169.824219 46.707031 166.648438 C 46.464844 163.691406 46.8125 160.925781 49.203125 157.230469 C 49.464844 156.832031 49.769531 156.457031 50.113281 156.125 C 50.273438 155.886719 50.613281 155.804688 50.886719 155.933594 C 54.417969 157.613281 56.953125 162.230469 56.953125 167.65625 "/></g></g></svg>